<svg width="30" height="26" viewBox="0 0 30 26" fill="none" xmlns="http://www.w3.org/2000/svg">
<path id="Vector" d="M11.2956 2.29163C11.2792 2.29829 10.5052 2.37119 9.72239 2.34369C8.74299 2.34359 8.05432 2.25366 7.1803 2.5729C6.27209 3.0416 5.78424 3.84917 5.04453 4.48957C4.35188 4.67887 3.28333 4.66893 2.17947 5.37497C1.53285 5.89547 1.19447 6.69881 0.981356 7.32291C0.0839669 10.3351 -0.137913 13.4552 0.0749554 16.7083C0.0903247 16.8593 0.140633 17.0066 0.220813 17.1354C1.20362 18.4365 2.8056 19.0255 4.28399 19.1875C6.04568 20.7065 8.48122 21.1852 11.4206 20.6979C12.2625 21.1539 13.2116 21.4749 14.2023 21.6875C13.9974 22.6252 13.7758 23.4679 14.0564 24.4063C14.5306 25.464 15.8951 25.9944 17.109 26C18.1957 26 19.2826 25.7626 20.1095 25.5833C21.7792 25.6293 23.4511 25.6832 25.1208 25.7292C25.267 25.7332 25.4139 25.7045 25.5479 25.6458C26.9797 25.0256 27.9777 23.5799 28.7672 22.0104C29.5568 20.441 30.0943 18.7504 29.9862 17.2812C29.6334 12.4318 27.6722 6.35787 26.5481 3.3958C26.5054 3.28136 26.4415 3.17483 26.3606 3.0833C25.2983 2.06959 23.8852 0.769738 22.5579 0.708371C21.4751 0.649305 20.6668 1.13427 19.8282 1.12504C18.8177 1.03387 17.5466 0.0551364 16.2026 3.62929e-05C14.5558 -0.00829706 12.9155 1.42039 11.2956 2.29163ZM16.1505 2.03123C17.3693 2.26293 18.5088 2.99643 19.6407 3.11457C20.6863 3.17827 21.8581 2.68827 22.4849 2.6979C23.2159 2.82267 24.052 3.59057 24.7561 4.3229C25.8375 7.21508 27.6707 13.0941 27.9858 17.4271C28.0438 18.215 27.6577 19.7786 26.9857 21.1146C26.3469 22.3844 25.4284 23.4093 24.8603 23.7187C23.2568 23.6746 21.6609 23.6275 20.0574 23.5833C19.9771 23.58 19.8965 23.5877 19.8178 23.604C18.9965 23.7825 17.9299 24.0003 17.109 23.9998C16.6673 24.0038 16.1519 23.9628 15.963 23.6873C15.9104 23.0086 15.9873 22.4077 16.2964 21.8436C17.2366 21.684 18.1066 21.4763 18.7968 20.9061C20.2776 21.311 22.4147 21.6121 23.9018 21.2708C24.7806 21.0529 25.6605 20.5625 26.2355 19.7187C26.8106 18.875 27.0453 17.7587 26.944 16.3853V16.375V16.3647C26.7403 14.0124 25.7765 9.57083 25.1833 7.87506C25.0443 7.46582 24.6148 7.17507 24.1831 7.19797C23.557 7.22497 23.0712 7.95352 23.2871 8.54172C23.7187 9.77549 24.7808 14.548 24.9541 16.5313C25.0231 17.2476 24.942 18.0423 24.579 18.5937C24.3212 18.9721 23.9629 19.189 23.4226 19.3229C22.4601 19.5615 21.011 19.376 19.8178 19.1042C20.0178 17.3722 19.8564 15.7066 19.7241 14.5001C19.4501 12.371 18.8719 10.1269 18.4634 8.35422C18.3626 7.90359 17.9144 7.55707 17.4528 7.57297C16.8597 7.59264 16.3728 8.23659 16.5152 8.81256C16.9319 10.6211 17.4829 12.8083 17.7341 14.7605C17.9219 17.2502 17.9246 18.6651 17.7237 19.1147C16.3295 20.5337 13.8594 19.7257 12.4312 19.0105C12.3367 15.7634 12.4206 11.835 12.7021 9.05212C12.7671 8.48829 12.2591 7.92796 11.6915 7.93756C11.2014 7.94622 10.753 8.36589 10.7122 8.85423C10.4225 11.7172 10.3331 15.5659 10.4204 18.8438C8.34479 19.0913 6.87628 18.7465 5.76342 17.8751C5.87488 14.7349 6.16872 11.9533 6.69065 9.13546C6.80966 8.54712 6.28013 7.91946 5.68007 7.93756C5.22152 7.95022 4.79789 8.31862 4.72158 8.77089C4.22129 11.4719 3.93638 14.1465 3.80476 17.0834C3.14082 16.9155 2.58498 16.6359 2.05447 16.1771C1.85546 13.3491 1.98525 10.6083 2.8671 7.96879C3.0699 7.37202 3.33818 7.02327 3.31509 7.0313C4.0596 6.59397 4.99266 6.58282 5.71132 6.37522C6.7334 5.97358 7.20655 5.00235 8.03463 4.40648C8.3326 4.26991 8.90675 4.31757 9.6599 4.34394C10.442 4.37127 11.2043 4.49591 12.0561 4.14604C13.2638 3.33887 14.8815 2.28023 16.1505 2.03123Z" fill="black"/>
</svg>
